<svg width="225" height="226" viewBox="0 0 225 226" fill="none" xmlns="http://www.w3.org/2000/svg">
<g clip-path="url(#clip0)">
<path d="M143.213 118.266C156.398 120.443 196.568 129.838 203.248 129.838C224.802 129.838 224.943 122.486 224.943 113.417C224.943 104.348 224.802 96.9965 203.248 96.9965C195.953 96.9965 157.034 103.627 142.401 106.115C162.38 98.2618 208.46 84.2587 215.572 77.1406C226.271 66.4315 224.943 60.105 224.943 46.9643C224.943 42.2213 224.943 0.841174 224.943 0.841174C224.943 0.841174 199.103 0.841174 193.39 0.841174C179.929 0.841174 173.863 7.37264 163.863 18.6684C155.049 28.6282 141.568 63.8868 132.535 89.4542C131.208 88.3374 129.781 87.3336 128.277 86.45C139.096 63.194 151.504 33.8873 151.504 21.7221C151.504 0.141373 134.025 0 112.472 0C90.918 0 73.4462 0.141373 73.4462 21.715C73.4462 33.8802 85.8474 63.187 96.6736 86.443C95.1835 87.3195 93.7711 88.3091 92.4505 89.4189C83.4109 63.8585 69.9434 28.6282 61.1299 18.6684C51.1369 7.37264 45.0705 0.841174 31.6101 0.841174C25.8968 0.841174 0.0564177 0.841174 0.0564177 0.841174C0.0564177 0.841174 0.0564177 42.2213 0.0564177 46.9643C0.0564177 60.105 -1.27127 66.4315 9.42789 77.1406C16.5465 84.2658 62.6482 98.2123 82.6412 106.066C67.9801 103.57 29.0112 96.9965 21.7019 96.9965C0.141163 97.0036 -7.94584e-05 104.355 -7.94584e-05 113.417C-7.94584e-05 122.479 0.141163 129.838 21.6948 129.838C28.3897 129.838 69.103 121.702 82.3234 119.517C63.531 127.038 16.1016 142.165 9.42082 148.852C-1.27833 159.561 0.0493556 165.888 0.0493556 179.029C0.0493556 183.772 0.0493556 225.152 0.0493556 225.152C0.0493556 225.152 25.8897 225.152 31.603 225.152C45.0635 225.152 51.1299 218.62 61.1299 207.325C69.8657 197.45 83.1849 162.728 92.2245 137.217C93.531 138.334 94.9293 139.345 96.4053 140.236C85.6567 163.379 73.4957 192.233 73.4957 204.278C73.4957 225.852 90.9674 225.993 112.521 225.993C134.075 225.993 151.547 225.852 151.547 204.278C151.547 192.226 139.371 163.343 128.616 140.193C130.078 139.31 131.462 138.299 132.754 137.189C141.787 162.7 155.12 197.45 163.856 207.332C173.849 218.627 179.915 225.159 193.383 225.159C199.096 225.159 224.936 225.159 224.936 225.159C224.936 225.159 224.936 183.779 224.936 179.036C224.936 165.895 226.264 159.568 215.565 148.859C208.898 142.172 161.999 125.787 143.213 118.266Z" fill="black"/>
</g>
<defs>
<clipPath id="clip0">
<rect width="225" height="226" fill="white"/>
</clipPath>
</defs>
</svg>
